<svg width="40" height="31" viewBox="0 0 40 31" fill="none" xmlns="http://www.w3.org/2000/svg">
<path d="M34.6085 0.300049H4.82055C2.1615 0.300049 0 2.46155 0 5.1206V25.4795C0 28.1386 2.1615 30.3 4.82055 30.3H34.6003C37.2594 30.3 39.4209 28.1386 39.4209 25.4795V5.12876C39.429 2.46971 37.2675 0.300049 34.6085 0.300049ZM37.2268 25.4795C37.2268 26.9232 36.0522 28.0978 34.6085 28.0978H4.82055C3.37684 28.0978 2.20228 26.9232 2.20228 25.4795V5.12876C2.20228 3.68504 3.37684 2.51049 4.82055 2.51049H34.6003C36.044 2.51049 37.2186 3.68504 37.2186 5.12876V25.4795H37.2268Z" fill="white"/>
<path d="M24.8612 15.0473L34.5023 6.40126C34.951 5.99343 34.9917 5.30011 34.5839 4.84334C34.1761 4.39473 33.4828 4.35395 33.026 4.76178L19.7307 16.6949L17.1369 14.3784C17.1288 14.3703 17.1206 14.3621 17.1206 14.354C17.0635 14.2969 17.0064 14.2479 16.9412 14.199L6.38651 4.75362C5.92974 4.34579 5.23643 4.38657 4.8286 4.84334C4.42077 5.30011 4.46156 5.99343 4.91833 6.40126L14.6736 15.1207L4.95911 24.2153C4.51865 24.6313 4.49418 25.3246 4.91017 25.7732C5.1304 26.0016 5.42403 26.1239 5.71767 26.1239C5.98684 26.1239 6.25601 26.0261 6.46808 25.8303L16.3294 16.6052L19.0048 18.9951C19.2169 19.1827 19.4779 19.2724 19.7389 19.2724C19.9999 19.2724 20.2691 19.1745 20.473 18.9869L23.2218 16.5236L33.026 25.8385C33.2381 26.0424 33.5154 26.1403 33.7846 26.1403C34.0782 26.1403 34.3637 26.0261 34.5839 25.7977C34.9999 25.3572 34.9836 24.6557 34.5431 24.2398L24.8612 15.0473Z" fill="white"/>
</svg>
